<svg xmlns="http://www.w3.org/2000/svg" xmlns:xlink="http://www.w3.org/1999/xlink" width="44.243" height="37.501" viewBox="0 0 44.243 37.501"><defs><style>.a{fill:#ffffff;}.b{filter:url(#a);}</style><filter id="a" x="0" y="0" width="44.243" height="37.501" filterUnits="userSpaceOnUse"><feOffset dy="3" input="SourceAlpha"/><feGaussianBlur stdDeviation="4" result="b"/><feFlood flood-opacity="0.302"/><feComposite operator="in" in2="b"/><feComposite in="SourceGraphic"/></filter></defs><g class="b" transform="matrix(1, 0, 0, 1, 0, 0)"><path class="a" d="M20.784,11.51a.919.919,0,0,0-.007,1.294l4.275,4.282H8.782a.914.914,0,0,0,0,1.828H25.045L20.77,23.2a.925.925,0,0,0,.007,1.294.91.91,0,0,0,1.287-.007l5.794-5.836h0a1.026,1.026,0,0,0,.19-.288.872.872,0,0,0,.07-.352.916.916,0,0,0-.26-.64l-5.794-5.836A.9.9,0,0,0,20.784,11.51Z" transform="translate(4.13 -2.25)"/></g></svg>