<svg xmlns="http://www.w3.org/2000/svg" x="0px" y="0px"
width="24" height="24"
viewBox="0 0 172 172"
style=" fill:#000000;"><g fill="none" fill-rule="nonzero" stroke="none" stroke-width="1" stroke-linecap="butt" stroke-linejoin="miter" stroke-miterlimit="10" stroke-dasharray="" stroke-dashoffset="0" font-family="none" font-weight="none" font-size="none" text-anchor="none" style="mix-blend-mode: normal"><path d="M0,172v-172h172v172z" fill="none"></path><g fill="#ffffff"><path d="M35.83333,0v28.66667h14.33333v-28.66667zM121.83333,0v28.66667h14.33333v-28.66667zM7.16667,21.5c-3.94726,0 -7.16667,3.2194 -7.16667,7.16667v21.5c0,3.94726 3.2194,7.16667 7.16667,7.16667v114.66667h157.66667v-114.66667c3.94726,0 7.16667,-3.2194 7.16667,-7.16667v-21.5c0,-3.94726 -3.2194,-7.16667 -7.16667,-7.16667h-21.5v14.33333h-28.66667v-14.33333h-57.33333v14.33333h-28.66667v-14.33333zM21.5,57.33333h129v100.33333h-129zM35.83333,71.66667v14.33333h14.33333v-14.33333zM64.5,71.66667v14.33333h14.33333v-14.33333zM93.16667,71.66667v14.33333h14.33333v-14.33333zM121.83333,71.66667v14.33333h14.33333v-14.33333zM35.83333,100.33333v14.33333h14.33333v-14.33333zM64.5,100.33333v14.33333h14.33333v-14.33333zM93.16667,100.33333v14.33333h14.33333v-14.33333zM121.83333,100.33333v14.33333h14.33333v-14.33333zM35.83333,129v14.33333h14.33333v-14.33333zM64.5,129v14.33333h14.33333v-14.33333zM93.16667,129v14.33333h14.33333v-14.33333zM121.83333,129v14.33333h14.33333v-14.33333z"></path></g></g></svg>