<svg xmlns="http://www.w3.org/2000/svg" x="0px" y="0px"
width="24" height="24"
viewBox="0 0 172 172"
style=" fill:#000000;"><g fill="none" fill-rule="nonzero" stroke="none" stroke-width="1" stroke-linecap="butt" stroke-linejoin="miter" stroke-miterlimit="10" stroke-dasharray="" stroke-dashoffset="0" font-family="none" font-weight="none" font-size="none" text-anchor="none" style="mix-blend-mode: normal"><path d="M0,172v-172h172v172z" fill="none"></path><g fill="#ffffff"><path d="M86,0c-47.50716,0 -86,38.49284 -86,86c0,47.50716 38.49284,86 86,86c47.50716,0 86,-38.49284 86,-86c0,-47.50716 -38.49284,-86 -86,-86zM86,14.33333c39.58464,0 71.66667,32.08203 71.66667,71.66667c0,39.58464 -32.08203,71.66667 -71.66667,71.66667c-39.58463,0 -71.66667,-32.08203 -71.66667,-71.66667c0,-39.58463 32.08203,-71.66667 71.66667,-71.66667zM78.38542,27.77083l-3.13542,58.67708l0.67188,6.27083l44.11979,38.96875l6.94271,-7.16667l-36.50521,-38.74479l-3.13542,-58.00521z"></path></g></g></svg>