<svg xmlns="http://www.w3.org/2000/svg" x="0px" y="0px"
width="24" height="24"
viewBox="0 0 172 172"
style=" fill:#000000;"><g fill="none" fill-rule="nonzero" stroke="none" stroke-width="1" stroke-linecap="butt" stroke-linejoin="miter" stroke-miterlimit="10" stroke-dasharray="" stroke-dashoffset="0" font-family="none" font-weight="none" font-size="none" text-anchor="none" style="mix-blend-mode: normal"><path d="M0,172v-172h172v172z" fill="none"></path><g fill="#ffd83b"><path d="M129.78117,74.07467l-64.5,-43c-2.39367,-1.59817 -5.16717,-2.408 -7.94783,-2.408c-2.322,0 -4.644,0.559 -6.76533,1.6985c-4.65833,2.494 -7.568,7.34583 -7.568,12.63483v86c0,5.289 2.90967,10.14083 7.568,12.63483c2.12133,1.1395 4.44333,1.6985 6.76533,1.6985c2.78067,0 5.55417,-0.80983 7.955,-2.408l64.5,-43c3.98467,-2.65883 6.37833,-7.13083 6.37833,-11.92533c0,-4.7945 -2.39367,-9.2665 -6.3855,-11.92533z"></path></g></g></svg>